<?xml version="1.0" encoding="UTF-8" standalone="no"?>
<svg
   xmlns:dc="http://purl.org/dc/elements/1.1/"
   xmlns:cc="http://creativecommons.org/ns#"
   xmlns:rdf="http://www.w3.org/1999/02/22-rdf-syntax-ns#"
   xmlns:svg="http://www.w3.org/2000/svg"
   xmlns="http://www.w3.org/2000/svg"
   id="svg12"
   version="1.1"
   viewBox="0 0 512 512">
  <metadata
     id="metadata18">
    <rdf:RDF>
      <cc:Work
         rdf:about="">
        <dc:format>image/svg+xml</dc:format>
        <dc:type
           rdf:resource="http://purl.org/dc/dcmitype/StillImage" />
      </cc:Work>
    </rdf:RDF>
  </metadata>
  <defs
     id="defs16" />
  <title
     id="title2">HTML5 Logo Badge</title>
  <path
     id="path4"
     d="M71,460 L30,0 481,0 440,460 255,512"
     fill="#E34F26" />
  <path
     id="path6"
     d="M256,472 L405,431 440,37 256,37"
     fill="#EF652A" />
  <path
     id="path8"
     d="M256,208 L181,208 176,150 256,150 256,94 255,94 114,94 115,109 129,265 256,265zM256,355 L255,355 192,338 188,293 158,293 132,293 139,382 255,414 256,414z"
     fill="#EBEBEB" />
  <path
     id="path10"
     d="M255,208 L255,265 325,265 318,338 255,355 255,414 371,382 372,372 385,223 387,208 371,208zM255,94 L255,129 255,150 255,150 392,150 392,150 392,150 393,138 396,109 397,94z"
     fill="#FFF" />
</svg>
