<svg width="150" height="150" viewBox="0 0 150 150" fill="none" xmlns="http://www.w3.org/2000/svg">
<path d="M74.6519 60.426C86.5454 60.426 96.1869 50.7844 96.1869 38.891C96.1869 26.9975 86.5454 17.356 74.6519 17.356C62.7585 17.356 53.1169 26.9975 53.1169 38.891C53.1169 50.7844 62.7585 60.426 74.6519 60.426Z" stroke="#EBB000" stroke-width="5"/>
<path d="M83.4482 57.0906C82.0959 57.9032 81.6567 59.6571 82.4664 61.011L92.2084 77.3001L92.2116 77.3056C93.0214 78.6533 94.7704 79.0894 96.1181 78.2796C97.4704 77.4671 97.9096 75.7132 97.0998 74.3592L87.3579 58.0701L87.3546 58.0646C86.5449 56.7169 84.7959 56.2809 83.4482 57.0906Z" fill="#EBB000" stroke="#EBB000"/>
<path fill-rule="evenodd" clip-rule="evenodd" d="M61.9492 113.945C59.0176 113.945 56.4261 115.709 55.35 118.438L52.4596 125.776C51.9134 127.164 51.6368 128.621 51.6368 130.108V130.628C51.6368 132.451 52.0693 134.282 52.8851 135.911L55.6187 141.378C56.1083 142.356 56.366 143.456 56.366 144.551V149.412H61.0951V144.551C61.0951 142.728 60.6626 140.898 59.8468 139.268L57.1133 133.801C56.6237 132.823 56.366 131.723 56.366 130.628V130.108C56.366 129.217 56.5313 128.342 56.8576 127.51L59.7495 120.17C60.102 119.276 60.9864 118.673 61.9487 118.673H63.4597H68.1889H71.0073C73.3649 118.673 75.2826 120.591 75.2826 122.949C75.2826 124.914 73.9514 126.616 72.0431 127.091L66.3541 128.515L63.5804 136.841L68.0637 138.337L70.0192 132.476L73.1901 131.681C74.6589 131.315 75.9614 130.593 77.028 129.633C77.3165 129.91 77.6214 130.17 77.9595 130.397L78.1035 130.487C79.2337 131.203 80.5153 131.553 81.7899 131.553C81.8848 131.553 81.9771 131.533 82.0715 131.528C82.2845 132.985 82.9275 134.391 84.0482 135.512L84.4549 135.919C85.8383 137.302 87.6542 137.992 89.4701 137.992C91.286 137.992 93.1019 137.302 94.4853 135.919L103.376 127.028C103.125 128.529 102.712 130.003 102.097 131.421L98.5123 139.695C97.2188 142.681 96.5638 145.843 96.5638 149.096V149.413H101.293V149.099C101.293 146.495 101.818 143.967 102.854 141.577L106.438 133.303C107.732 130.317 108.387 127.156 108.387 123.902V119.157V118.674V118.488C108.387 114.681 105.287 111.581 101.48 111.581H101.293V111.394C101.293 107.587 98.1935 104.487 94.3864 104.487H91.8352V104.3C91.8352 100.493 88.7352 97.3932 84.9281 97.3932H82.6842C81.7408 97.3932 80.8514 97.639 80.0123 97.996V86.7526C80.0123 82.1888 76.3 78.4766 71.7362 78.4766C67.1724 78.4766 63.4602 82.1893 63.4602 86.7526V113.945H61.9492ZM87.1557 132.073C86.2331 131.151 86.2331 129.652 87.1576 128.73L99.0347 116.853C99.4438 116.441 99.9925 116.214 100.574 116.214H101.243C102.444 116.214 103.421 117.191 103.421 118.392V118.579V119.061C103.421 119.643 103.194 120.191 102.783 120.603L90.9056 132.48C89.981 133.405 88.4869 133.405 87.5623 132.48L87.1557 132.073ZM80.4522 126.482C79.9462 126.127 79.7193 125.649 79.619 125.269C79.6096 125.262 79.6071 125.252 79.6001 125.243C79.7466 124.678 79.841 124.091 79.8742 123.493L79.8981 123.45H79.903C79.9224 123.45 79.9388 123.41 79.9576 123.386L84.4266 117.439L89.9125 110.128C90.3217 109.587 90.9672 109.263 91.648 109.263H94.2916C95.4928 109.263 96.4695 110.239 96.4695 111.441V112.11C96.4695 112.692 96.2426 113.24 95.8334 113.652L83.9564 125.529L83.2448 126.24C82.5139 126.971 81.3624 127.085 80.4994 126.512L80.4522 126.482ZM78.759 118.863C77.7847 116.498 75.7086 115.479 75.7111 114.822L81.6226 103.432C82.0054 102.742 82.3202 102.311 83.1098 102.311H85.3537C86.5548 102.311 87.5315 103.288 87.5315 104.489V105.524C87.5315 106.002 87.3826 106.51 87.0941 106.896L86.6422 107.671L83.8377 111.639L78.759 118.863ZM69.7575 114.181H68.5211V86.9889C68.5211 85.0335 70.1125 83.4421 72.0679 83.4421C74.0234 83.4421 75.6148 85.0335 75.6143 86.9889V103.64L69.7575 114.181Z" fill="#EBB000"/>
<path fill-rule="evenodd" clip-rule="evenodd" d="M134.592 26.8149H129.863V31.5439H125.134V36.2729H129.863V41.0019H134.592V36.2729H139.321V31.5439H134.592V26.8149Z" fill="#EBB000"/>
<path fill-rule="evenodd" clip-rule="evenodd" d="M108.771 17.167V12.438H113.5V7.70898H108.771V2.97998H104.042V7.70898H99.313V12.438H104.042V17.167H108.771Z" fill="#EBB000"/>
<path fill-rule="evenodd" clip-rule="evenodd" d="M18.729 40V44.729H14V49.458H18.729V54.187H23.458V49.458H28.187V44.729H23.458V40H18.729Z" fill="#EBB000"/>
<path fill-rule="evenodd" clip-rule="evenodd" d="M34.282 13.627V8.89697H29.553V13.627H24.823V18.356H29.553V23.085H34.282V18.356H39.011V13.627H34.282Z" fill="#EBB000"/>
<path fill-rule="evenodd" clip-rule="evenodd" d="M42.198 72.0239H46.928V67.2949H42.198V62.5659H37.47V67.2949H32.741V72.0239H37.47V76.7529H42.198V72.0239Z" fill="#EBB000"/>
<path fill-rule="evenodd" clip-rule="evenodd" d="M113.973 52.635V57.364H109.244V62.094H113.973V66.822H118.702V62.094H123.431V57.364H118.702V52.635H113.973Z" fill="#EBB000"/>
</svg>
