<svg width="150" height="150" viewBox="0 0 150 150" fill="none" xmlns="http://www.w3.org/2000/svg">
<g clip-path="url(#clip0)">
<path fill-rule="evenodd" clip-rule="evenodd" d="M74.8234 38.6269C58.8555 38.6269 45.8658 51.6166 45.8658 67.5845C45.8658 77.9948 51.3747 87.4641 60.3443 92.6401V95.3669C58.8869 96.4696 57.9312 98.1997 57.9312 100.164C57.9312 101.528 58.4019 102.773 59.1666 103.784C58.4014 104.793 57.9312 106.038 57.9312 107.401C57.9312 110.729 60.6362 113.434 63.9641 113.434H85.6822C89.01 113.434 91.7151 110.729 91.7151 107.401C91.7151 106.038 91.2443 104.793 90.4796 103.782C91.2448 102.771 91.7151 101.526 91.7151 100.162C91.7151 98.1977 90.7594 96.4676 89.3019 95.3644V92.6375C98.2715 87.4615 103.78 77.9948 103.78 67.582C103.781 51.6166 90.7913 38.6269 74.8234 38.6269ZM85.6827 108.607H63.9646C63.3008 108.607 62.758 108.065 62.758 107.401C62.758 106.737 63.3008 106.194 63.9646 106.194H85.6827C86.3465 106.194 86.8893 106.737 86.8893 107.401C86.8898 108.065 86.3465 108.607 85.6827 108.607ZM85.6827 101.368H63.9646C63.3008 101.368 62.758 100.826 62.758 100.162C62.758 99.498 63.3008 98.9553 63.9646 98.9553H85.6827C86.3465 98.9553 86.8893 99.498 86.8893 100.162C86.8893 100.826 86.3465 101.368 85.6827 101.368ZM85.7886 89.0563L84.4761 89.7318V94.1284H77.2366V76.8936C81.3894 75.8147 84.4761 72.0673 84.4761 67.584C84.4761 62.2605 80.1469 57.9313 74.8234 57.9313C69.4999 57.9313 65.1707 62.2605 65.1707 67.584C65.1707 72.0678 68.2568 75.8152 72.4102 76.8936V94.1284H65.1707V89.7318L63.8582 89.0583C55.7379 84.9029 50.6921 76.6742 50.6921 67.584C50.6921 54.2781 61.5175 43.4527 74.8234 43.4527C88.1293 43.4527 98.9546 54.2781 98.9546 67.584C98.9546 76.6747 93.9094 84.9034 85.7886 89.0563ZM147.894 89.7779C146.202 82.0488 143.335 74.2494 139.465 66.6095C145.092 47.3477 142.595 29.4885 131.376 18.272C121.383 8.28179 106.072 4.92503 88.2317 8.82706C86.4965 9.20611 84.7594 9.66929 83.0192 10.176C75.3818 6.31 67.5894 3.44581 59.8655 1.75679C40.147 -2.56027 23.2117 1.14108 12.1766 12.1767C1.14096 23.2124 -2.55786 40.1497 1.75414 59.8676C3.44569 67.5967 6.30988 75.3961 10.181 83.036C4.44957 102.565 7.17187 120.278 18.2698 131.376C25.5454 138.651 35.642 142.406 47.4783 142.406C51.8992 142.406 56.5639 141.88 61.4116 140.82C63.1467 140.441 64.8839 139.978 66.6241 139.471C74.2614 143.338 82.0538 146.202 89.7778 147.891C95.1469 149.063 100.309 149.645 105.202 149.645C118.282 149.645 129.438 145.499 137.468 137.468C148.506 126.436 152.205 109.498 147.894 89.7779ZM127.963 21.6845C137.003 30.724 139.563 44.8093 136.113 60.4488C130.678 51.1701 123.76 42.2249 115.589 34.0564C107.421 25.8855 98.4752 18.9673 89.1965 13.5328C104.696 10.1183 118.832 12.5532 127.963 21.6845ZM6.469 58.8369C2.51883 40.7816 5.75701 25.4223 15.5881 15.5887C22.6878 8.48905 32.6658 4.82875 44.4661 4.82875C49.0051 4.82875 53.8168 5.37148 58.8362 6.46963C64.6999 7.75324 70.6173 9.74682 76.4688 12.3744C62.9217 17.5336 49.5747 26.3461 37.9604 37.9605C33.7594 42.1615 29.9004 46.6549 26.4256 51.3171C25.3274 50.9406 24.167 50.6923 22.9411 50.6923C16.9543 50.6923 12.0818 55.5642 12.0818 61.5516C12.0818 64.6377 13.3898 67.4107 15.4624 69.3896C14.3232 71.7688 13.2834 74.1384 12.3834 76.4892C9.75126 70.6296 7.75312 64.7081 6.469 58.8369ZM28.9746 61.5516C28.9746 64.8769 26.2695 67.5845 22.9416 67.5845C19.6138 67.5845 16.9087 64.8769 16.9087 61.5516C16.9087 58.2262 19.6138 55.5186 22.9416 55.5186C26.2695 55.5186 28.9746 58.2262 28.9746 61.5516ZM21.6839 127.963C12.7675 119.047 10.0644 105.065 13.559 89.2397C18.9884 98.5038 25.8996 107.432 34.0584 115.589C42.2293 123.762 51.1746 130.683 60.4579 136.117C44.9536 139.534 30.8182 137.099 21.6839 127.963ZM74.8234 72.4108C72.1619 72.4108 69.997 70.2465 69.997 67.5845C69.997 64.923 72.1614 62.7581 74.8234 62.7581C77.4854 62.7581 79.6497 64.9225 79.6497 67.5845C79.6502 70.246 77.4859 72.4108 74.8234 72.4108ZM37.4698 112.177C28.3533 103.06 20.8604 92.9654 15.3509 82.5505C16.4805 79.0372 17.9283 75.4559 19.6391 71.8412C20.6866 72.1793 21.7822 72.4108 22.9401 72.4108C28.9269 72.4108 33.7994 67.5389 33.7994 61.5516C33.7994 58.5353 32.5589 55.8085 30.5683 53.8367C33.8359 49.4933 37.4481 45.3014 41.3744 41.373C54.1087 28.6387 68.643 19.7781 82.5231 15.3353C92.9501 20.8443 103.052 28.3423 112.178 37.4684C121.302 46.5926 128.8 56.6963 134.311 67.1208C131.619 75.4924 127.282 84.1478 121.363 92.6183C120.04 92.0416 118.585 91.7157 117.053 91.7157C111.066 91.7157 106.194 96.5877 106.194 102.575C106.194 104.78 106.862 106.827 107.996 108.54C95.3298 121.127 80.909 129.901 67.1298 134.312C56.7028 128.801 46.5965 121.303 37.4698 112.177ZM123.086 102.575C123.086 105.902 120.381 108.607 117.053 108.607C113.726 108.607 111.021 105.902 111.021 102.575C111.021 99.2467 113.726 96.5416 117.053 96.5416C120.381 96.5416 123.086 99.2467 123.086 102.575ZM134.059 134.059C124.231 143.89 108.878 147.133 90.8111 143.178C84.9474 141.894 79.0325 139.901 73.1785 137.273C86.6557 132.14 99.9352 123.388 111.506 111.86C113.135 112.838 115.019 113.434 117.054 113.434C123.041 113.434 127.913 108.562 127.913 102.575C127.913 99.8644 126.88 97.4127 125.233 95.5088C130.404 88.1269 134.424 80.5884 137.264 73.1583C139.897 79.02 141.895 84.9414 143.179 90.8127C147.128 108.866 143.89 124.228 134.059 134.059Z" fill="#EBB000"/>
</g>
<defs>
<clipPath id="clip0">
<rect width="150" height="150" fill="white"/>
</clipPath>
</defs>
</svg>
