<svg width="150" height="150" viewBox="0 0 150 150" fill="none" xmlns="http://www.w3.org/2000/svg">
<path fill-rule="evenodd" clip-rule="evenodd" d="M13.8241 39.0176H22.1744L23.4677 45L27 44.1928L24.1677 31.0881C23.5216 28.092 20.984 26 17.9998 26C15.0156 26 12.478 28.092 11.8323 31.0861L9 44.1928L12.5323 45L13.8241 39.0176ZM116 18.7096C116 8.39317 107.607 0 97.2904 0C86.974 0 78.5808 8.39317 78.5808 18.7096C78.5808 22.8201 79.9296 26.7287 82.3472 29.9352H78.5808V35.5482C78.5808 38.6427 81.0993 41.1612 84.1938 41.1612H95.4194V43.818C95.4194 44.6879 94.8281 45.4364 93.9806 45.6383L22.8838 62.5669C22.3149 62.6997 21.7424 62.5708 21.2898 62.2152C20.8407 61.8577 20.5806 61.323 20.5806 60.7466V59.8708H31.8062C34.9007 59.8708 37.4192 57.3523 37.4192 54.2578V48.6452H33.6528C36.07 45.4383 37.4192 41.5297 37.4192 37.4196C37.4192 27.1032 29.026 18.71 18.7096 18.71C8.39317 18.71 0 27.1028 0 37.4192C0 41.5297 1.34883 45.4383 3.76636 48.6448H0.000392902V54.2578C0.000392902 57.3523 2.5189 59.8708 5.61339 59.8708H16.839V60.7466C16.839 62.4754 17.6173 64.0808 18.9736 65.151C19.9783 65.9443 21.1943 66.3615 22.4406 66.3615C22.8767 66.3615 23.3179 66.3109 23.7521 66.2063L54.1234 58.975C54.0653 59.1585 54.0095 59.3435 53.9777 59.538L44.5649 116H71.4339L62.0231 59.538C61.8809 58.6831 61.4731 57.9401 60.9041 57.3602L94.8469 49.2778C97.3878 48.6755 99.1614 46.43 99.1614 43.8184V41.1616H110.387C113.481 41.1616 116 38.6431 116 35.5486V29.9352H112.234C114.651 26.7287 116 22.8201 116 18.7096ZM15.7645 31.336C16.05 29.9601 17.1765 29 18.5002 29C19.8239 29 20.9504 29.9601 21.2358 31.3381L22 35H15L15.7645 31.336ZM4 36.8572C4 28.6652 10.5049 22 18.5 22C26.4951 22 33 28.6652 33 36.8572C33 41.1472 31.2164 45.1736 28.0808 48H8.91961C5.784 45.1736 4 41.1472 4 36.8572ZM5.81255 56C4.81188 56 4 55.1021 4 54V52H7.61596H29.384H33V54C33 55.1021 32.1881 56 31.1875 56H5.81255ZM67 112H49L57.6686 60.2427C57.7227 59.9191 58.2773 59.9191 58.3314 60.2427L67 112ZM83 18.8572C83 10.6652 89.5049 4 97.5 4C105.495 4 112 10.6652 112 18.8572C112 23.1472 110.216 27.1736 107.081 30H87.9188C84.784 27.1736 83 23.1472 83 18.8572ZM111 33V35H111C111 36.1021 110.188 37 109.187 37H83.8125C82.8119 37 82 36.1021 82 35V33H85.6159H107.384H111ZM106 20.5999C106 19.2175 105.456 17.9558 104.564 16.9998C105.456 16.0438 106 14.7821 106 13.3997C106 10.4226 103.476 8 100.375 8H91V26H100.375C103.477 26 106 23.577 106 20.5999ZM95 11H100.25C101.216 11 102 11.8979 102 13C102 14.1021 101.216 15 100.25 15H95V11ZM95 18H100.25C101.216 18 102 18.8979 102 20C102 21.1021 101.216 22 100.25 22H95V18Z" fill="#EBB000"/>
<path fill-rule="evenodd" clip-rule="evenodd" d="M123.371 111.073H139.552C142.94 111.073 145.698 108.315 145.698 104.927V72.1465C145.698 68.7579 142.94 66 139.552 66H90.8012C87.4132 66 84.6559 68.7579 84.6559 72.1465V104.927C84.6559 108.315 87.4132 111.073 90.8012 111.073H106.983V115.171H72.1611H31.1932H23V127.463H29.1452V150H33.2421V127.463H37.3389V150H41.4357V127.463H131.564V150H135.661V127.463H139.758V150H143.855V127.463H150V115.171H123.371V111.073ZM90.8012 70.0976H139.552C140.681 70.0976 141.601 71.0175 141.601 72.1465V98.7807H88.7527V72.1465C88.7527 71.0175 89.6724 70.0976 90.8012 70.0976ZM90.8012 106.976C89.6724 106.976 88.7527 106.056 88.7527 104.927V102.878H141.601V104.927C141.601 106.056 140.681 106.976 139.552 106.976H123.37H106.983H90.8012ZM119.274 111.073V115.171H111.08V111.073H119.274ZM145.902 123.366H143.854H131.564H41.4353H29.1452H27.0968V119.269H31.0749H72.0424H106.984H123.371H145.902V123.366Z" fill="#EBB000"/>
</svg>
