<svg width="150" height="150" viewBox="0 0 150 150" fill="none" xmlns="http://www.w3.org/2000/svg">
<g clip-path="url(#clip0)">
<path fill-rule="evenodd" clip-rule="evenodd" d="M149.614 14.478V0H135.136V4.82635H86.8733V0H72.3948V14.4785H86.8733V9.6522H95.0321C87.2159 14.8429 82.047 23.7182 82.047 33.7834H14.4791C10.4878 33.7834 7.23953 37.0318 7.23953 41.023V71.2495C5.04122 69.3963 3.19764 69.8473 2.48818 70.1539C1.7402 70.4772 0 71.5779 0 74.8069V142.374C0 146.366 3.24831 149.614 7.23953 149.614H79.6333C82.7919 149.614 83.8829 148.05 84.2544 147.119C84.6238 146.185 84.901 144.3 82.5988 142.136L80.2895 139.962H142.374C146.366 139.962 149.614 136.713 149.614 132.722V41.023C149.614 37.0318 146.366 33.7834 142.374 33.7834H139.961C139.961 23.7182 134.792 14.8429 126.976 9.6522H135.135V14.4785H149.614V14.478ZM139.962 4.82584H144.788V9.6522H139.962V4.82584ZM82.047 9.6522H77.2206V4.82584H82.047V9.6522ZM19.3054 48.262C20.6382 48.262 21.7186 47.1816 21.7186 45.8488C21.7186 44.5161 20.6382 43.4356 19.3054 43.4356C17.9726 43.4356 16.8922 44.5161 16.8922 45.8488C16.8922 47.1816 17.9726 48.262 19.3054 48.262ZM28.9581 48.262C30.2909 48.262 31.3713 47.1816 31.3713 45.8488C31.3713 44.5161 30.2909 43.4356 28.9581 43.4356C27.6253 43.4356 26.5449 44.5161 26.5449 45.8488C26.5449 47.1816 27.6253 48.262 28.9581 48.262ZM38.6103 48.262C39.9431 48.262 41.0235 47.1816 41.0235 45.8488C41.0235 44.5161 39.9431 43.4356 38.6103 43.4356C37.2775 43.4356 36.1971 44.5161 36.1971 45.8488C36.1971 47.1816 37.2775 48.262 38.6103 48.262ZM12.0664 41.022C12.0664 39.6932 13.1498 38.6093 14.4791 38.6093H82.4595C82.462 38.6285 82.4883 38.6336 82.503 38.6453C83.4223 44.0772 85.8623 49.053 89.4988 53.0878H12.0664V41.022ZM16.8922 132.722H47.9514L16.8922 103.489V132.722ZM21.7186 114.659L35.7821 127.895H21.7186V114.659ZM7.24003 144.787C5.9103 144.787 4.82686 143.707 4.82686 142.374V139.961H9.65321V135.135H4.82686V130.308H9.65321V125.482H4.82686V120.656H9.65321V115.829H4.82686V111.003H9.65321V106.177H4.82686V101.351H9.65321V96.525H4.82686V91.6986H9.65321V86.8723H4.82686V75.5645L30.073 99.3264L37.3535 106.177L78.3765 144.787H7.24003ZM21.7186 84.8356V67.5674H74.8074V101.351H39.2671L21.7186 84.8356ZM144.788 132.724C144.788 134.053 143.705 135.135 142.375 135.135H75.1622L44.3949 106.177H79.6338V62.741H16.8922V80.2916L12.0659 75.75V57.9147H95.14C95.6057 58.2187 96.04 58.5588 96.525 58.839V61.5633C95.0701 62.666 94.1118 64.3961 94.1118 66.3583C94.1118 67.7215 94.5826 68.9671 95.3498 69.978C94.5826 70.9916 94.1118 72.2367 94.1118 73.6003C94.1118 76.9257 96.8194 79.6333 100.145 79.6333H121.863C125.188 79.6333 127.896 76.9257 127.896 73.6003C127.896 72.2372 127.425 70.9916 126.658 69.9806C127.425 68.9696 127.896 67.7245 127.896 66.3608C127.896 64.3992 126.938 62.6686 125.483 61.5659V58.8416C125.968 58.5618 126.402 58.2213 126.868 57.9172H144.788V132.724ZM100.145 72.3932H121.863C122.529 72.3932 123.07 72.934 123.07 73.5998C123.07 74.2657 122.529 74.8064 121.863 74.8064H100.145C99.4794 74.8064 98.9387 74.2657 98.9387 73.5998C98.9387 72.9345 99.4794 72.3932 100.145 72.3932ZM98.9387 66.3603C98.9387 65.6944 99.4794 65.1537 100.145 65.1537H121.863C122.529 65.1537 123.07 65.6944 123.07 66.3603C123.07 67.0262 122.529 67.5669 121.863 67.5669H100.145C99.4794 67.5674 98.9387 67.0262 98.9387 66.3603ZM139.549 38.6098H142.375C143.705 38.6098 144.788 39.6932 144.788 41.023V53.0889H132.508C136.07 49.1387 138.475 44.2834 139.438 38.9818C139.482 38.8708 139.525 38.7547 139.549 38.6098ZM135.136 33.7834C135.136 42.8736 130.093 51.1024 121.97 55.2578L120.657 55.9313V60.3279H113.418V43.0931C117.568 42.0142 120.657 38.2667 120.657 33.7834C120.657 28.46 116.328 24.1307 111.005 24.1307C105.681 24.1307 101.352 28.46 101.352 33.7834C101.352 38.2672 104.441 42.0147 108.591 43.0931V60.3279H101.352V55.9313L100.039 55.2578C91.9166 51.1024 86.8733 42.8736 86.8733 33.7834C86.8733 20.4775 97.6987 9.6522 111.005 9.6522C124.31 9.6522 135.136 20.4775 135.136 33.7834ZM111.005 38.6098C108.343 38.6098 106.178 36.4454 106.178 33.7834C106.178 31.122 108.343 28.9571 111.005 28.9571C113.667 28.9571 115.831 31.1215 115.831 33.7834C115.83 36.4454 113.666 38.6098 111.005 38.6098ZM84.4601 86.8728H139.962V91.6992H84.4601V86.8728ZM84.4601 96.525H139.962V101.351H84.4601V96.525ZM84.4601 106.177H139.962V111.004H84.4601V106.177ZM84.4601 115.829H139.962V120.656H84.4601V115.829Z" fill="#EBB000"/>
</g>
<defs>
<clipPath id="clip0">
<rect width="150" height="150" fill="white"/>
</clipPath>
</defs>
</svg>
